<svg width="207" height="33" viewBox="0 0 207 33" fill="none" xmlns="http://www.w3.org/2000/svg">
<path d="M199.001 32V23.754H190.071V19.498L198.089 1.21999H202.877V20.144H206.335V23.754H202.877V32H199.001ZM193.985 20.144H199.001V6.16L193.985 20.144Z" fill="#EC5B52"/>
<path d="M176.926 32.342C175.152 32.342 173.708 31.8987 172.594 31.012C171.479 30.1 170.656 28.884 170.124 27.364C169.617 25.8187 169.364 24.1087 169.364 22.234V11.86C169.364 9.85866 169.592 8.03466 170.048 6.38799C170.504 4.74133 171.276 3.424 172.366 2.43599C173.48 1.44799 175 0.953995 176.926 0.953995C178.522 0.953995 179.864 1.24533 180.954 1.828C182.068 2.41066 182.917 3.25933 183.5 4.37399C184.108 5.48866 184.424 6.844 184.45 8.44C184.45 8.49066 184.45 8.56666 184.45 8.668C184.475 8.744 184.488 8.81999 184.488 8.89599H180.384C180.384 7.40133 180.143 6.26133 179.662 5.476C179.18 4.69066 178.268 4.29799 176.926 4.29799C176.191 4.29799 175.558 4.53866 175.026 5.01999C174.494 5.476 174.088 6.18533 173.81 7.14799C173.556 8.11066 173.43 9.35199 173.43 10.872V15.546C173.835 14.9127 174.405 14.406 175.14 14.026C175.9 13.6207 176.824 13.418 177.914 13.418C179.611 13.418 180.941 13.7853 181.904 14.52C182.866 15.2547 183.55 16.2933 183.956 17.636C184.361 18.9533 184.564 20.5113 184.564 22.31C184.564 24.1593 184.31 25.844 183.804 27.364C183.297 28.884 182.486 30.1 181.372 31.012C180.257 31.8987 178.775 32.342 176.926 32.342ZM176.926 28.96C177.838 28.96 178.547 28.7067 179.054 28.2C179.56 27.668 179.915 26.9713 180.118 26.11C180.346 25.2487 180.46 24.3113 180.46 23.298C180.46 22.082 180.396 20.9547 180.27 19.916C180.168 18.8773 179.877 18.054 179.396 17.446C178.914 16.8127 178.091 16.496 176.926 16.496C176.368 16.496 175.862 16.5973 175.406 16.8C174.95 17.0027 174.557 17.2687 174.228 17.598C173.898 17.902 173.632 18.2313 173.43 18.586V23.184C173.43 24.2227 173.531 25.1853 173.734 26.072C173.962 26.9587 174.329 27.668 174.836 28.2C175.342 28.7067 176.039 28.96 176.926 28.96Z" fill="#EC5B52"/>
<path d="M154.704 32.304C153.843 32.304 153.083 32.0633 152.424 31.582C151.765 31.0753 151.246 30.442 150.866 29.682C150.486 28.8967 150.296 28.0733 150.296 27.212C150.296 25.844 150.524 24.6913 150.98 23.754C151.436 22.8167 152.057 22.0313 152.842 21.398C153.653 20.7393 154.577 20.1693 155.616 19.688C156.68 19.2067 157.795 18.738 158.96 18.282V16.724C158.96 15.8373 158.909 15.1027 158.808 14.52C158.707 13.9373 158.491 13.5067 158.162 13.228C157.858 12.924 157.389 12.772 156.756 12.772C156.199 12.772 155.743 12.8987 155.388 13.152C155.059 13.4053 154.818 13.7727 154.666 14.254C154.514 14.71 154.438 15.2547 154.438 15.888V16.99L150.41 16.838C150.461 14.406 151.018 12.62 152.082 11.48C153.146 10.3147 154.793 9.73199 157.022 9.73199C159.201 9.73199 160.746 10.3273 161.658 11.518C162.57 12.7087 163.026 14.4313 163.026 16.686V26.718C163.026 27.402 163.039 28.0607 163.064 28.694C163.115 29.3273 163.165 29.9227 163.216 30.48C163.292 31.012 163.355 31.5187 163.406 32H159.682C159.606 31.5947 159.505 31.088 159.378 30.48C159.277 29.8467 159.201 29.2767 159.15 28.77C158.897 29.6313 158.403 30.442 157.668 31.202C156.959 31.9367 155.971 32.304 154.704 32.304ZM156.3 28.808C156.705 28.808 157.085 28.694 157.44 28.466C157.795 28.238 158.111 27.9847 158.39 27.706C158.669 27.402 158.859 27.1613 158.96 26.984V20.752C158.327 21.1067 157.731 21.4613 157.174 21.816C156.617 22.1707 156.123 22.5507 155.692 22.956C155.287 23.336 154.957 23.7793 154.704 24.286C154.476 24.7673 154.362 25.3247 154.362 25.958C154.362 26.8447 154.527 27.5413 154.856 28.048C155.185 28.5547 155.667 28.808 156.3 28.808Z" fill="#170517"/>
<path d="M131.031 32V10.036H135.097V19.27H140.303V10.036H144.369V32H140.303V22.234H135.097V32H131.031Z" fill="#170517"/>
<path d="M112.979 32V10.036H117.045V19.308H118.185L122.327 10.036H126.507L121.909 20.676L126.583 32H122.327L118.185 21.74H117.045V32H112.979Z" fill="#170517"/>
<path d="M98.4227 32.342C96.3453 32.342 94.686 31.9367 93.4447 31.126C92.2033 30.3153 91.3167 29.1627 90.7847 27.668C90.2527 26.148 89.9867 24.3747 89.9867 22.348V10.682C89.9867 8.65533 90.2527 6.92 90.7847 5.476C91.342 4.00666 92.2287 2.892 93.4447 2.132C94.686 1.34666 96.3453 0.953995 98.4227 0.953995C100.5 0.953995 102.147 1.34666 103.363 2.132C104.579 2.91733 105.453 4.03199 105.985 5.476C106.542 6.92 106.821 8.65533 106.821 10.682V22.386C106.821 24.3873 106.542 26.1353 105.985 27.63C105.453 29.1247 104.579 30.29 103.363 31.126C102.147 31.9367 100.5 32.342 98.4227 32.342ZM98.4227 28.96C99.5627 28.96 100.424 28.732 101.007 28.276C101.589 27.7947 101.982 27.136 102.185 26.3C102.387 25.4387 102.489 24.438 102.489 23.298V9.80799C102.489 8.668 102.387 7.69266 102.185 6.882C101.982 6.046 101.589 5.41266 101.007 4.98199C100.424 4.52599 99.5627 4.29799 98.4227 4.29799C97.2827 4.29799 96.4087 4.52599 95.8007 4.98199C95.218 5.41266 94.8253 6.046 94.6227 6.882C94.42 7.69266 94.3187 8.668 94.3187 9.80799V23.298C94.3187 24.438 94.42 25.4387 94.6227 26.3C94.8253 27.136 95.218 27.7947 95.8007 28.276C96.4087 28.732 97.2827 28.96 98.4227 28.96Z" fill="#170517"/>
<path d="M67.7074 32L67.9354 10.036H70.9374L75.8014 23.526L80.7034 10.036H83.7054L83.9334 32H80.5134V18.89L76.4474 29.834H75.1934L71.1274 18.966V32H67.7074Z" fill="#170517"/>
<path d="M56.0702 32.304C54.6008 32.304 53.4482 31.9747 52.6122 31.316C51.7762 30.6573 51.1935 29.72 50.8642 28.504C50.5348 27.288 50.3702 25.8567 50.3702 24.21V22.348H47.3302V32H43.7582V10.036H47.3302V19.65H50.3702V17.826C50.3702 16.1793 50.5348 14.748 50.8642 13.532C51.1935 12.316 51.7762 11.3787 52.6122 10.72C53.4482 10.0613 54.6008 9.73199 56.0702 9.73199C57.5395 9.73199 58.6795 10.0613 59.4902 10.72C60.3262 11.3787 60.9088 12.316 61.2382 13.532C61.5928 14.748 61.7702 16.1793 61.7702 17.826V24.21C61.7702 25.8567 61.5928 27.288 61.2382 28.504C60.9088 29.72 60.3262 30.6573 59.4902 31.316C58.6795 31.9747 57.5395 32.304 56.0702 32.304ZM56.0702 29.302C56.7795 29.302 57.2735 29.074 57.5522 28.618C57.8562 28.162 58.0335 27.5667 58.0842 26.832C58.1602 26.072 58.1982 25.2867 58.1982 24.476V17.598C58.1982 16.762 58.1602 15.9767 58.0842 15.242C58.0335 14.5073 57.8562 13.912 57.5522 13.456C57.2735 12.9747 56.7795 12.734 56.0702 12.734C55.3608 12.734 54.8542 12.9747 54.5502 13.456C54.2715 13.912 54.0942 14.5073 54.0182 15.242C53.9675 15.9767 53.9422 16.762 53.9422 17.598V24.476C53.9422 25.2867 53.9675 26.072 54.0182 26.832C54.0942 27.5667 54.2715 28.162 54.5502 28.618C54.8542 29.074 55.3608 29.302 56.0702 29.302Z" fill="#170517"/>
<path d="M21.6288 32.19V29.112C22.3888 29.112 22.9841 28.96 23.4148 28.656C23.8708 28.352 24.2128 27.8453 24.4408 27.136C24.6941 26.4013 24.8841 25.426 25.0108 24.21C25.1375 22.9687 25.2515 21.4233 25.3528 19.574L25.8468 10.036H37.3608V32H33.2948V13.114H29.4188L29.0768 19.574C28.9501 22.082 28.7601 24.1593 28.5068 25.806C28.2788 27.4527 27.9115 28.7447 27.4048 29.682C26.8981 30.594 26.2141 31.24 25.3528 31.62C24.5168 32 23.4275 32.19 22.0848 32.19H21.6288Z" fill="#170517"/>
<path d="M0.72168 32L7.25768 1.21999H11.3997L17.9737 32H13.9077L12.5017 24.248H6.23168L4.74968 32H0.72168ZM6.80168 21.17H11.9317L9.34768 7.3L6.80168 21.17Z" fill="#170517"/>
</svg>
