<svg width="142" height="22" viewBox="0 0 142 22" fill="none" xmlns="http://www.w3.org/2000/svg">
<path d="M136.935 21.7603V15.9806H130.768V12.9976L136.305 0.18644H139.612V13.4504H142V15.9806H139.612V21.7603H136.935ZM133.471 13.4504H136.935V3.64891L133.471 13.4504Z" fill="#EC5B52"/>
<path d="M121.689 22C120.465 22 119.467 21.6893 118.698 21.0678C117.928 20.4286 117.359 19.5763 116.992 18.5109C116.642 17.4278 116.467 16.2292 116.467 14.9153V7.64407C116.467 6.24132 116.624 4.96287 116.939 3.80872C117.254 2.65456 117.788 1.73124 118.54 1.03874C119.31 0.346247 120.36 0 121.689 0C122.792 0 123.719 0.204197 124.471 0.612591C125.241 1.02099 125.827 1.61582 126.229 2.39709C126.649 3.17837 126.868 4.12833 126.886 5.24697C126.886 5.28249 126.886 5.33575 126.886 5.40678C126.903 5.46005 126.912 5.51332 126.912 5.56659H124.078C124.078 4.51897 123.911 3.71994 123.579 3.16949C123.246 2.61905 122.617 2.34383 121.689 2.34383C121.182 2.34383 120.745 2.51251 120.377 2.84988C120.01 3.16949 119.73 3.66667 119.537 4.3414C119.362 5.01614 119.275 5.8862 119.275 6.95157V10.2276C119.555 9.7837 119.949 9.42857 120.456 9.16223C120.981 8.87813 121.619 8.73608 122.372 8.73608C123.544 8.73608 124.462 8.99354 125.127 9.50848C125.792 10.0234 126.264 10.7514 126.544 11.6925C126.824 12.6158 126.964 13.7078 126.964 14.9685C126.964 16.2647 126.789 17.4455 126.439 18.5109C126.09 19.5763 125.53 20.4286 124.76 21.0678C123.99 21.6893 122.967 22 121.689 22ZM121.689 19.6295C122.319 19.6295 122.809 19.452 123.159 19.0969C123.509 18.724 123.754 18.2357 123.894 17.632C124.051 17.0282 124.13 16.3713 124.13 15.661C124.13 14.8087 124.086 14.0186 123.999 13.2906C123.929 12.5626 123.728 11.9855 123.395 11.5593C123.063 11.1154 122.494 10.8935 121.689 10.8935C121.304 10.8935 120.955 10.9645 120.64 11.1065C120.325 11.2486 120.054 11.435 119.826 11.6659C119.599 11.8789 119.415 12.1098 119.275 12.3584V15.5811C119.275 16.3091 119.345 16.9839 119.485 17.6053C119.642 18.2268 119.896 18.724 120.246 19.0969C120.596 19.452 121.077 19.6295 121.689 19.6295Z" fill="#EC5B52"/>
<path d="M106.343 21.9734C105.748 21.9734 105.223 21.8047 104.768 21.4673C104.313 21.1122 103.955 20.6683 103.692 20.1356C103.43 19.5851 103.298 19.0081 103.298 18.4044C103.298 17.4455 103.456 16.6376 103.771 15.9806C104.086 15.3236 104.514 14.7732 105.057 14.3293C105.617 13.8676 106.255 13.4681 106.973 13.1308C107.707 12.7934 108.477 12.4649 109.282 12.1453V11.0533C109.282 10.4318 109.247 9.91687 109.177 9.50848C109.107 9.10008 108.958 8.79822 108.731 8.60291C108.521 8.38983 108.197 8.28329 107.76 8.28329C107.375 8.28329 107.06 8.37207 106.815 8.54964C106.588 8.7272 106.421 8.98466 106.316 9.32203C106.212 9.64165 106.159 10.0234 106.159 10.4673V11.2397L103.377 11.1332C103.412 9.42857 103.797 8.17676 104.532 7.37772C105.267 6.56094 106.404 6.15254 107.944 6.15254C109.448 6.15254 110.515 6.56981 111.145 7.40436C111.775 8.2389 112.09 9.44633 112.09 11.0266V18.0581C112.09 18.5375 112.099 18.9992 112.116 19.4431C112.151 19.887 112.186 20.3043 112.221 20.6949C112.274 21.0678 112.317 21.4229 112.352 21.7603H109.781C109.728 21.4762 109.658 21.1211 109.571 20.6949C109.501 20.251 109.448 19.8515 109.413 19.4964C109.238 20.1001 108.897 20.6683 108.39 21.201C107.9 21.7159 107.218 21.9734 106.343 21.9734ZM107.445 19.523C107.725 19.523 107.987 19.4431 108.232 19.2833C108.477 19.1235 108.696 18.9459 108.888 18.7506C109.081 18.5375 109.212 18.3688 109.282 18.2446V13.8765C108.845 14.1251 108.433 14.3737 108.049 14.6223C107.664 14.8709 107.322 15.1372 107.025 15.4213C106.745 15.6877 106.518 15.9984 106.343 16.3535C106.185 16.6909 106.107 17.0815 106.107 17.5254C106.107 18.1469 106.22 18.6352 106.448 18.9903C106.675 19.3454 107.008 19.523 107.445 19.523Z" fill="#170517"/>
<path d="M89.9935 21.7603V6.36562H92.8015V12.8378H96.3969V6.36562H99.2049V21.7603H96.3969V14.9153H92.8015V21.7603H89.9935Z" fill="#170517"/>
<path d="M77.5268 21.7603V6.36562H80.3349V12.8644H81.1222L83.9827 6.36562H86.8695L83.694 13.8232L86.922 21.7603H83.9827L81.1222 14.569H80.3349V21.7603H77.5268Z" fill="#170517"/>
<path d="M67.4739 22C66.0393 22 64.8933 21.7159 64.036 21.1477C63.1788 20.5795 62.5664 19.7716 62.199 18.724C61.8316 17.6586 61.6479 16.4157 61.6479 14.9952V6.8184C61.6479 5.3979 61.8316 4.1816 62.199 3.16949C62.5839 2.13963 63.1963 1.35835 64.036 0.825667C64.8933 0.275223 66.0393 0 67.4739 0C68.9086 0 70.0458 0.275223 70.8856 0.825667C71.7254 1.37611 72.329 2.15739 72.6964 3.16949C73.0813 4.1816 73.2737 5.3979 73.2737 6.8184V15.0218C73.2737 16.4245 73.0813 17.6497 72.6964 18.6973C72.329 19.745 71.7254 20.5617 70.8856 21.1477C70.0458 21.7159 68.9086 22 67.4739 22ZM67.4739 19.6295C68.2612 19.6295 68.8561 19.4697 69.2585 19.1501C69.6609 18.8128 69.9321 18.3511 70.072 17.7651C70.212 17.1614 70.282 16.46 70.282 15.661V6.20581C70.282 5.40678 70.212 4.72317 70.072 4.15496C69.9321 3.56901 69.6609 3.1251 69.2585 2.82324C68.8561 2.50363 68.2612 2.34383 67.4739 2.34383C66.6866 2.34383 66.083 2.50363 65.6631 2.82324C65.2607 3.1251 64.9896 3.56901 64.8496 4.15496C64.7096 4.72317 64.6396 5.40678 64.6396 6.20581V15.661C64.6396 16.46 64.7096 17.1614 64.8496 17.7651C64.9896 18.3511 65.2607 18.8128 65.6631 19.1501C66.083 19.4697 66.6866 19.6295 67.4739 19.6295Z" fill="#170517"/>
<path d="M46.2615 21.7603L46.4189 6.36562H48.4921L51.8513 15.8208L55.2367 6.36562H57.3099L57.4674 21.7603H55.1055V12.5714L52.2975 20.2421H51.4314L48.6234 12.6247V21.7603H46.2615Z" fill="#170517"/>
<path d="M38.2246 21.9734C37.2099 21.9734 36.4138 21.7425 35.8364 21.2809C35.2591 20.8192 34.8567 20.1622 34.6292 19.3099C34.4018 18.4576 34.2881 17.4544 34.2881 16.3002V14.9952H32.1886V21.7603H29.7217V6.36562H32.1886V13.1041H34.2881V11.8257C34.2881 10.6715 34.4018 9.66828 34.6292 8.81598C34.8567 7.96368 35.2591 7.3067 35.8364 6.84504C36.4138 6.38337 37.2099 6.15254 38.2246 6.15254C39.2393 6.15254 40.0266 6.38337 40.5865 6.84504C41.1639 7.3067 41.5663 7.96368 41.7937 8.81598C42.0386 9.66828 42.1611 10.6715 42.1611 11.8257V16.3002C42.1611 17.4544 42.0386 18.4576 41.7937 19.3099C41.5663 20.1622 41.1639 20.8192 40.5865 21.2809C40.0266 21.7425 39.2393 21.9734 38.2246 21.9734ZM38.2246 19.8692C38.7145 19.8692 39.0556 19.7094 39.2481 19.3898C39.458 19.0702 39.5805 18.6529 39.6155 18.138C39.668 17.6053 39.6942 17.0549 39.6942 16.4867V11.6659C39.6942 11.0799 39.668 10.5295 39.6155 10.0145C39.5805 9.4996 39.458 9.08232 39.2481 8.76271C39.0556 8.42534 38.7145 8.25666 38.2246 8.25666C37.7347 8.25666 37.3848 8.42534 37.1749 8.76271C36.9824 9.08232 36.8599 9.4996 36.8075 10.0145C36.7725 10.5295 36.755 11.0799 36.755 11.6659V16.4867C36.755 17.0549 36.7725 17.6053 36.8075 18.138C36.8599 18.6529 36.9824 19.0702 37.1749 19.3898C37.3848 19.7094 37.7347 19.8692 38.2246 19.8692Z" fill="#170517"/>
<path d="M14.4388 21.8935V19.7361C14.9637 19.7361 15.3748 19.6295 15.6723 19.4165C15.9872 19.2034 16.2234 18.8483 16.3808 18.3511C16.5558 17.8362 16.687 17.1525 16.7745 16.3002C16.862 15.4302 16.9407 14.3471 17.0107 13.0508L17.3518 6.36562H25.3036V21.7603H22.4956V8.523H19.8187L19.5825 13.0508C19.4951 14.8087 19.3638 16.2647 19.1889 17.4189C19.0314 18.573 18.7777 19.4786 18.4278 20.1356C18.0779 20.7748 17.6055 21.2276 17.0107 21.4939C16.4333 21.7603 15.681 21.8935 14.7537 21.8935H14.4388Z" fill="#170517"/>
<path d="M0 21.7603L4.51387 0.18644H7.37441L11.9145 21.7603H9.10647L8.13547 16.3269H3.8053L2.7818 21.7603H0ZM4.19895 14.1695H7.74181L5.95726 4.44794L4.19895 14.1695Z" fill="#170517"/>
</svg>
